<svg xmlns="http://www.w3.org/2000/svg" viewBox="0 0 36 36">
  <path fill="#B86F1C" d="M5 28C5 24.5 10.8 22 18 22s13 2.5 13 6c0 0.9-0.7 1.6-1.6 1.6H6.6C5.7 29.6 5 28.9 5 28Z"/>
  <path fill="#D98A2B" d="M8 21.5C8 18.4 12.7 16.3 18 16.3s10 2.1 10 5.2c0 0.8-0.65 1.4-1.45 1.4H9.45C8.65 22.9 8 22.3 8 21.5Z"/>
  <path fill="#F5E6C8" d="M11.2 15C11.2 12.3 14.9 10.5 18 10.5s6.8 1.8 6.8 4.5c0 0.7-0.55 1.2-1.25 1.2H12.45C11.75 16.2 11.2 15.7 11.2 15Z"/>
  <rect x="17.3" y="3" width="1.4" height="6.6" fill="#243329"/>
  <path fill="#DA251D" d="M18.7 3.4 24 5.6 18.7 7.8Z"/>
</svg>
