<svg xmlns="http://www.w3.org/2000/svg" viewBox="0 0 36 36">
  <!-- Three solid-wood planks, each with its own grain — the flooring
       product itself, not a generic ruler glyph -->
  <rect x="3" y="6" width="30" height="7.2" rx="0.6" fill="#E2C896"/>
  <rect x="3" y="6" width="30" height="7.2" rx="0.6" fill="none" stroke="#C49A6C" stroke-width="0.6"/>
  <path stroke="#C49A6C" stroke-width="0.7" opacity="0.7" fill="none" d="M5 8c4 1.5 8-1 12 1s8-1 12 1.4 5-1 7 0.6"/>

  <rect x="3" y="14.4" width="30" height="7.2" rx="0.6" fill="#D9B872"/>
  <rect x="3" y="14.4" width="30" height="7.2" rx="0.6" fill="none" stroke="#B8956A" stroke-width="0.6"/>
  <path stroke="#B8956A" stroke-width="0.7" opacity="0.7" fill="none" d="M5 17c4-1.5 8 1 12-1s8 1 12-1.4 5 1 7-0.6"/>

  <rect x="3" y="22.8" width="30" height="7.2" rx="0.6" fill="#C49A6C"/>
  <rect x="3" y="22.8" width="30" height="7.2" rx="0.6" fill="none" stroke="#A4774A" stroke-width="0.6"/>
  <path stroke="#A4774A" stroke-width="0.7" opacity="0.7" fill="none" d="M5 25.4c4 1.5 8-1 12 1s8-1 12 1.4 5-1 7 0.6"/>
</svg>
