<svg xmlns="http://www.w3.org/2000/svg" viewBox="0 0 36 36">
  <!-- A hand-struck temple bell, the call to conversation — not a
       generic telephone glyph -->
  <ellipse cx="18" cy="30.5" rx="2.6" ry="1" fill="#243329" opacity="0.25"/>
  <rect x="16.7" y="5" width="2.6" height="5.5" fill="#8B5A2B"/>
  <ellipse cx="18" cy="5" rx="2.2" ry="1.3" fill="#B86F1C"/>
  <path fill="#D98A2B" d="M9 27c0-7.2 4-12.4 9-12.4s9 5.2 9 12.4Z"/>
  <path fill="#B86F1C" d="M9 27h18v2.4c0 1-0.9 1.6-2 1.6H11c-1.1 0-2-0.6-2-1.6Z"/>
  <ellipse cx="18" cy="27" rx="9" ry="1.6" fill="#8B5A2B" opacity="0.6"/>
  <circle cx="18" cy="31.5" r="1.4" fill="#8B5A2B"/>
  <path stroke="#F5E6C8" stroke-width="0.8" opacity="0.45" fill="none" d="M13 24.5c0-4 2.2-7 5-7M21.5 16.6c1.8 1.6 3 4.4 3.4 7.6"/>
</svg>
