<svg xmlns="http://www.w3.org/2000/svg" viewBox="0 0 36 36">
  <path fill="#EF9645" d="M18 4 33 27H3Z"/>
  <path fill="#DD2E44" d="M18 4 30.5 23.2C26.6 21.6 22.4 20.7 18 20.7c-4.4 0-8.6 0.9-12.5 2.5L18 4Z"/>
  <ellipse fill="#AA8DD8" cx="18" cy="27.5" rx="16" ry="3.2"/>
  <ellipse fill="#C1694F" cx="18" cy="26.6" rx="14.4" ry="2.4"/>
  <path fill="#FFCC4D" d="M18 9.8 19.3 13.6 23.3 13.6 20 16 21.3 19.8 18 17.4 14.7 19.8 16 16 12.7 13.6 16.7 13.6Z"/>
  <path fill="#5DADEC" d="M11 27.5c0 0-1.2 4.6-3.5 6.2-0.4 0.3-1 0-0.9-0.5l1.4-5.9Z"/>
  <path fill="#5DADEC" d="M25 27.5c0 0 1.2 4.6 3.5 6.2 0.4 0.3 1 0 0.9-0.5l-1.4-5.9Z"/>
</svg>
