<svg xmlns="http://www.w3.org/2000/svg" viewBox="0 0 36 36">
  <!-- Vietnamese tea set: the first conversation, shared over trà -->
  <ellipse cx="5.5" cy="31.3" rx="3.8" ry="0.9" fill="#243329" opacity="0.22"/>
  <rect x="2.8" y="27.4" width="5.4" height="4" rx="1" fill="#F5E6C8"/>
  <rect x="2.8" y="27.4" width="5.4" height="1.4" fill="#E2C896"/>
  <ellipse cx="29" cy="31.4" rx="6.6" ry="1" fill="#243329" opacity="0.22"/>
  <path fill="#D98A2B" d="M11 27c0-5 4.2-8.2 9.3-8.2s9.3 3.2 9.3 8.2c0 1.6-1.1 2.7-2.5 2.7H13.5C12.1 29.7 11 28.6 11 27Z"/>
  <path fill="#B86F1C" d="M11 27c0-4.6 3.6-7.7 7.9-8.1-0.4 2.8-0.4 5.7 0 8.5 0 1.7-1.1 2.3-2.5 2.3H13.5C12.1 29.7 11 28.6 11 27Z"/>
  <ellipse cx="20.3" cy="18.4" rx="4.4" ry="1.6" fill="#B86F1C"/>
  <circle cx="20.3" cy="16.5" r="1.3" fill="#8B5A2B"/>
  <path fill="#B86F1C" d="M30 22.4c2.1-1 4.6-0.3 4.6 1.5 0 1.7-2.1 2.7-4.8 1.9Z"/>
  <path fill="none" stroke="#8B5A2B" stroke-width="1.8" d="M11.5 23.2c-2.5 0.3-3.7 2.3-2.5 4.2 1 1.6 3.1 1.9 4.6 1"/>
  <path stroke="#4F7A52" stroke-width="1.1" stroke-linecap="round" fill="none" opacity="0.85" d="M16.4 13c1-1.4-0.4-2 0.4-3.4M20.3 11c1-1.4-0.4-2 0.4-3.4M24.2 13c1-1.4-0.4-2 0.4-3.4"/>
  <circle cx="5" cy="26.8" r="0.9" fill="#DA251D"/>
</svg>
