<svg xmlns="http://www.w3.org/2000/svg" viewBox="0 0 36 36">
  <!-- Đông Sơn bronze-drum sun motif: the full design package, our deepest work -->
  <circle cx="18" cy="18" r="15" fill="#16231C"/>
  <circle cx="18" cy="18" r="15" fill="none" stroke="#D98A2B" stroke-width="1.2"/>
  <g fill="#F5E6C8" opacity="0.9">
    <circle cx="30" cy="18" r="0.65"/>
    <circle cx="28.39" cy="24" r="0.65"/>
    <circle cx="24" cy="28.39" r="0.65"/>
    <circle cx="18" cy="30" r="0.65"/>
    <circle cx="12" cy="28.39" r="0.65"/>
    <circle cx="7.61" cy="24" r="0.65"/>
    <circle cx="6" cy="18" r="0.65"/>
    <circle cx="7.61" cy="12" r="0.65"/>
    <circle cx="12" cy="7.61" r="0.65"/>
    <circle cx="18" cy="6" r="0.65"/>
    <circle cx="24" cy="7.61" r="0.65"/>
    <circle cx="28.39" cy="12" r="0.65"/>
  </g>
  <g stroke="#D98A2B" stroke-width="2" stroke-linecap="round">
    <line x1="24" y1="18" x2="28.5" y2="18"/>
    <line x1="22.24" y1="22.24" x2="25.42" y2="25.42"/>
    <line x1="18" y1="24" x2="18" y2="28.5"/>
    <line x1="13.76" y1="22.24" x2="10.58" y2="25.42"/>
    <line x1="12" y1="18" x2="7.5" y2="18"/>
    <line x1="13.76" y1="13.76" x2="10.58" y2="10.58"/>
    <line x1="18" y1="12" x2="18" y2="7.5"/>
    <line x1="22.24" y1="13.76" x2="25.42" y2="10.58"/>
  </g>
  <circle cx="18" cy="18" r="4.2" fill="#D98A2B"/>
  <circle cx="18" cy="18" r="1.3" fill="#F5E6C8"/>
  <circle cx="18" cy="7.5" r="1" fill="#DA251D"/>
</svg>
