<svg xmlns="http://www.w3.org/2000/svg" viewBox="0 0 36 36">
  <!-- Nhà rường on stilts, two-tier roof: the complete, end-to-end build -->
  <ellipse cx="18" cy="34" rx="14" ry="1.5" fill="#243329" opacity="0.2"/>
  <path fill="#B86F1C" d="M3 19 18 9 33 19Z"/>
  <path fill="#D98A2B" d="M9 12 18 5 27 12Z"/>
  <path stroke="#F5E6C8" stroke-width="0.9" fill="none" opacity="0.5" d="M9 12 18 5 27 12"/>
  <rect x="8" y="19" width="20" height="9.2" fill="#F5E6C8"/>
  <rect x="8" y="19" width="20" height="1.4" fill="#E2C896"/>
  <rect x="15.4" y="21.2" width="5.2" height="7" rx="0.6" fill="#243329"/>
  <rect x="10.4" y="21.6" width="3" height="3" fill="#4F7A52"/>
  <rect x="22.6" y="21.6" width="3" height="3" fill="#4F7A52"/>
  <rect x="10" y="28.2" width="2.1" height="5.4" fill="#8B5A2B"/>
  <rect x="16.9" y="28.2" width="2.2" height="5.4" fill="#8B5A2B"/>
  <rect x="23.9" y="28.2" width="2.1" height="5.4" fill="#8B5A2B"/>
  <rect x="17.3" y="1.6" width="1" height="4" fill="#243329"/>
  <path fill="#DA251D" d="M18.3 2 22 3.2 18.3 4.4Z"/>
</svg>
