<svg xmlns="http://www.w3.org/2000/svg" viewBox="0 0 36 36">
  <!-- Trống canh, the night-watch drum traditionally struck to mark the hours -->
  <g transform="rotate(33 27.5 8)">
    <rect x="26.8" y="2" width="1.4" height="9" rx="0.7" fill="#243329"/>
    <circle cx="27.5" cy="2.2" r="2.1" fill="#8B5A2B"/>
  </g>
  <path fill="#B86F1C" d="M8.5 13c0-2.2 4.3-4 9.5-4s9.5 1.8 9.5 4v11c0 2.2-4.3 4-9.5 4s-9.5-1.8-9.5-4Z"/>
  <ellipse cx="18" cy="13" rx="9.5" ry="3" fill="#F5E6C8"/>
  <ellipse cx="18" cy="24" rx="9.5" ry="3" fill="#8B5A2B" opacity="0.55"/>
  <path stroke="#8B5A2B" stroke-width="0.7" opacity="0.5" fill="none" d="M10.2 14.4 17 23.6M25.8 14.4 19 23.6M14 13.6 19.4 23.4M22 13.6 16.6 23.4"/>
  <path fill="#FFCD00" d="M18 9.6 18.6 11 20 11 18.9 11.9 19.3 13.3 18 12.5 16.7 13.3 17.1 11.9 16 11 17.4 11Z"/>
</svg>
