<svg xmlns="http://www.w3.org/2000/svg" viewBox="0 0 400 300">
  <rect width="400" height="300" fill="#F8F5EE"/>
  <rect x="150" y="50" width="100" height="190" rx="14" fill="none" stroke="#0C1F3F" stroke-width="2"/>
  <line x1="170" y1="62" x2="230" y2="62" stroke="#0C1F3F" stroke-width="1.5"/>
  <g>
    <rect x="168" y="190" width="14" height="30" fill="#003baf"/>
    <rect x="188" y="170" width="14" height="50" fill="#003baf"/>
    <rect x="208" y="145" width="14" height="75" fill="#003baf"/>
    <rect x="228" y="115" width="14" height="105" fill="#003baf"/>
  </g>
  <path d="M168 195 L188 175 L208 150 L242 118" fill="none" stroke="#003baf" stroke-width="2"/>
  <polygon points="242,118 234,120 240,128" fill="#003baf"/>
  <g transform="translate(200,90)">
    <circle r="9" fill="#003baf"/>
    <g stroke="#003baf" stroke-width="1.5">
      <line x1="0" y1="-14" x2="0" y2="-18"/>
      <line x1="0" y1="14" x2="0" y2="18"/>
      <line x1="-14" y1="0" x2="-18" y2="0"/>
      <line x1="14" y1="0" x2="18" y2="0"/>
      <line x1="-10" y1="-10" x2="-13" y2="-13"/>
      <line x1="10" y1="10" x2="13" y2="13"/>
      <line x1="-10" y1="10" x2="-13" y2="13"/>
      <line x1="10" y1="-10" x2="13" y2="-13"/>
    </g>
  </g>
  <g transform="translate(110,255)" stroke="#0C1F3F" stroke-width="1.5" fill="none">
    <circle cx="0" cy="0" r="10"/>
    <line x1="0" y1="10" x2="0" y2="22"/>
  </g>
  <g transform="translate(290,255)" stroke="#003baf" stroke-width="2" fill="none">
    <polyline points="-9,0 -2,8 10,-10"/>
  </g>
</svg>
