<svg xmlns="http://www.w3.org/2000/svg" viewBox="0 0 400 300">
  <rect width="400" height="300" fill="#F8F5EE"/>
  <path d="M70 220 L70 120 L150 70 L230 120 L230 220 Z" fill="none" stroke="#0C1F3F" stroke-width="2"/>
  <line x1="55" y1="220" x2="245" y2="220" stroke="#0C1F3F" stroke-width="2"/>
  <g stroke="#003baf" stroke-width="1" stroke-dasharray="12 6" fill="none">
    <line x1="90" y1="135" x2="170" y2="90"/>
    <line x1="105" y1="160" x2="190" y2="113"/>
    <line x1="120" y1="185" x2="210" y2="136"/>
    <line x1="80" y1="150" x2="100" y2="138"/>
    <line x1="115" y1="172" x2="135" y2="160"/>
    <line x1="150" y1="195" x2="170" y2="183"/>
  </g>
  <g transform="translate(60,238)">
    <rect x="0" y="0" width="34" height="40" rx="2" fill="none" stroke="#0C1F3F" stroke-width="1.5"/>
    <line x1="6" y1="10" x2="28" y2="10" stroke="#0C1F3F" stroke-width="1.5"/>
    <line x1="6" y1="18" x2="28" y2="18" stroke="#0C1F3F" stroke-width="1.5"/>
    <line x1="6" y1="26" x2="22" y2="26" stroke="#0C1F3F" stroke-width="1.5"/>
  </g>
  <g transform="translate(330,250)">
    <circle cx="0" cy="0" r="14" fill="none" stroke="#0C1F3F" stroke-width="1.5"/>
    <line x1="10" y1="10" x2="20" y2="20" stroke="#0C1F3F" stroke-width="1.5"/>
  </g>
</svg>
